<svg width="26" height="21" viewBox="0 0 26 21" fill="none" xmlns="http://www.w3.org/2000/svg">
<g clip-path="url(#clip0_3052_917)">
<path fill-rule="evenodd" clip-rule="evenodd" d="M8.27813 11.851C8.27813 7.06765 13.6064 5.44935 16.3136 8.25155C18.2024 10.204 18.1698 13.295 16.3906 15.1162C16.2693 15.2403 16.2087 15.2642 16.0851 15.3764C15.9639 15.4838 15.9126 15.5315 15.7773 15.6342C13.7696 17.169 10.7336 16.7799 9.10826 14.4837C8.61858 13.7939 8.2758 12.7819 8.2758 11.8534L8.27813 11.851ZM6.90701 11.5908C6.90701 15.1496 9.63992 17.9328 13.0001 17.9328C14.7933 17.9328 16.3533 17.083 17.2534 16.1521C19.0489 14.2975 19.6388 11.5144 18.5685 9.16573C18.2258 8.41147 17.8923 7.89352 17.3536 7.34215L16.5678 6.63802C16.2623 6.40171 15.9639 6.24895 15.6048 6.06278C14.0494 5.26078 11.9834 5.24646 10.4234 6.04607C9.89642 6.31579 9.49068 6.54731 9.04997 6.92922C7.8071 8.0057 6.90234 9.79586 6.90234 11.5932L6.90701 11.5908Z" fill="#49B142"/>
<path fill-rule="evenodd" clip-rule="evenodd" d="M20.5668 6.65233C20.5668 7.29918 21.0192 7.84578 21.7117 7.92454C22.3413 7.99615 23.0036 7.44478 23.0036 6.80748V6.54731C23.0036 5.73577 22.0055 5.18201 21.299 5.5305C20.9049 5.72622 20.5645 6.16064 20.5645 6.64995L20.5668 6.65233Z" fill="#49B142"/>
<path fill-rule="evenodd" clip-rule="evenodd" d="M6.95577 2.39176C5.8085 2.39176 2.9963 2.27241 2.17083 2.48246C1.60886 2.62567 1.34769 2.84765 0.997917 3.15317C0.895317 3.24387 0.92563 3.19852 0.834689 3.29877C0.788052 3.35128 0.750742 3.40618 0.694778 3.46824C0.351998 3.86208 -0.00244141 4.52563 -0.00244141 5.24886V18.1404C-0.00244141 19.6991 1.4433 20.9999 2.99397 20.9999H22.9498C23.8966 20.9999 24.5635 20.6753 25.0462 20.1812C25.5662 19.6465 25.9976 18.9878 25.9976 18.1404V5.19635C25.9976 4.74045 25.867 4.40629 25.7107 4.08645C25.2164 3.07679 24.2557 2.38937 23.1037 2.38937H18.9904C18.9904 0.926209 17.8968 -0.00228882 16.451 -0.00228882H9.59541C8.27092 -0.00228882 7.36384 0.601593 7.04904 1.80936C7.00707 1.97405 6.99774 2.20558 6.95577 2.38937V2.39176ZM7.58303 3.84537C6.55469 3.84537 4.03397 3.74512 3.29245 3.92175C2.78877 4.04348 2.55559 4.23204 2.24312 4.49222C2.15218 4.5686 2.17783 4.53041 2.09621 4.61395C2.05424 4.65691 2.01926 4.70465 1.97263 4.75716C1.66482 5.09132 1.34769 5.65463 1.34769 6.26806V17.2C1.34769 18.5223 2.6442 19.6251 4.03397 19.6251H21.9215C22.7703 19.6251 23.3696 19.3506 23.801 18.9305C24.2673 18.477 24.6544 17.9184 24.6544 17.2V6.22271C24.6544 5.83603 24.5378 5.55199 24.3979 5.28227C23.9549 4.42538 23.0944 3.84298 22.0614 3.84298H18.3748C18.3748 2.6018 17.3954 1.81413 16.0989 1.81413H9.95451C8.7676 1.81413 7.95379 2.32731 7.67164 3.3489C7.632 3.48972 7.625 3.68545 7.58769 3.8406L7.58303 3.84537Z" fill="#49B142"/>
</g>
<defs>
<clipPath id="clip0_3052_917">
<rect width="26" height="21" fill="white"/>
</clipPath>
</defs>
</svg>
