<svg width="26" height="26" viewBox="0 0 26 26" fill="none" xmlns="http://www.w3.org/2000/svg">
<g clip-path="url(#clip0_3052_867)">
<path d="M23.5675 17.4935H23.3026V15.9046C23.3026 14.4452 22.1143 13.2567 20.6546 13.2567C19.195 13.2567 18.0067 14.4452 18.0067 15.9046V17.4935H17.7417C16.7196 17.4935 15.8882 18.3249 15.8882 19.3472V23.0543C15.8882 24.0766 16.7196 24.9081 17.7417 24.9081H23.5675C24.5896 24.9081 25.4211 24.0766 25.4211 23.0543V19.3472C25.4211 18.3249 24.5896 17.4935 23.5675 17.4935ZM19.5955 15.9046C19.5955 15.3211 20.071 14.8455 20.6546 14.8455C21.2382 14.8455 21.7138 15.3211 21.7138 15.9046V17.4935H19.5955V15.9046Z" fill="white"/>
<path d="M14.2993 19.3472C14.2993 17.9172 15.1754 16.6895 16.4178 16.1696V15.9046C16.4178 15.2607 16.5734 14.657 16.8319 14.1093C16.0311 13.5722 15.0693 13.2567 14.0346 13.2567H5.03119C2.25716 13.2567 0 15.5138 0 18.2879V21.9952C0 22.4337 0.355893 22.7896 0.794408 22.7896H14.2993V19.3472Z" fill="white"/>
<path d="M14.829 5.84226C14.829 8.76718 12.4578 11.1382 9.53293 11.1382C6.60801 11.1382 4.23682 8.76718 4.23682 5.84226C4.23682 2.91734 6.60801 0.546143 9.53293 0.546143C12.4578 0.546143 14.829 2.91734 14.829 5.84226Z" fill="white"/>
</g>
<defs>
<clipPath id="clip0_3052_867">
<rect width="25.4211" height="25.4211" fill="white"/>
</clipPath>
</defs>
</svg>
