<svg width="20" height="18" viewBox="0 0 20 18" fill="none" xmlns="http://www.w3.org/2000/svg">
<path d="M18.2423 2.14453H1.75797C1.48738 2.14453 1.23406 2.2044 1.00488 2.30309L9.96109 10.3637L11.9685 8.62741C11.9685 8.62741 11.9686 8.62724 11.9687 8.62717C11.9687 8.6271 11.9689 8.62703 11.9689 8.62703L18.9957 2.30323C18.7665 2.20447 18.513 2.14453 18.2423 2.14453Z" fill="#5FBB59"/>
<path d="M19.824 3.04904L13.2114 9.00008L19.8238 14.9512C19.9335 14.745 20 14.517 20 14.2734V3.72657C20 3.48319 19.9336 3.25523 19.824 3.04904Z" fill="#5FBB59"/>
<path d="M0.176172 3.0488C0.0665234 3.25506 0 3.48305 0 3.72658V14.2735C0 14.5168 0.0664453 14.7449 0.176016 14.9511L6.78863 9.00001L0.176172 3.0488Z" fill="#5FBB59"/>
<path d="M12.3828 9.74577L10.3752 11.4822C10.2607 11.5852 10.1108 11.6368 9.96092 11.6368C9.81104 11.6368 9.66107 11.5852 9.54666 11.4822L7.61713 9.7457L1.00439 15.6968C1.23361 15.7955 1.48709 15.8555 1.75775 15.8555H18.2421C18.5127 15.8555 18.766 15.7956 18.9952 15.6969L12.3828 9.74577Z" fill="#5FBB59"/>
</svg>
