<svg width="22" height="22" viewBox="0 0 22 22" fill="none" xmlns="http://www.w3.org/2000/svg">
<g clip-path="url(#clip0_3052_948)">
<path fill-rule="evenodd" clip-rule="evenodd" d="M11.1719 2.49245H0.687488C0.273529 2.49245 0.0350577 2.79311 0 3.11497V3.27917C0.0194105 3.45703 0.102598 3.62697 0.254911 3.74126C0.410393 3.85792 0.621928 3.91021 0.902191 3.91021H11.1717C11.1787 4.21879 11.4338 4.68544 11.5601 4.89677C12.6853 6.7784 15.6167 7.0139 16.9905 4.91638C17.1288 4.70524 17.3781 4.19998 17.4023 3.91021C17.8541 3.91021 21.0499 3.93912 21.3396 3.89456C21.7463 3.83197 21.9584 3.57211 21.9998 3.29264V3.08447C21.955 2.78222 21.7162 2.50849 21.3137 2.49086C20.3848 2.45026 18.4075 2.49225 17.4023 2.49225C17.3102 1.38526 15.8758 -1.52588e-05 14.5664 -1.52588e-05C13.5467 -1.52588e-05 12.8666 0.102385 12.0785 0.863553C11.6718 1.25632 11.1842 1.94301 11.1719 2.49205V2.49245ZM14.2863 1.22265C15.3638 1.22265 16.2371 2.09612 16.2371 3.1734C16.2371 4.25088 15.3636 5.12415 14.2863 5.12415C13.2088 5.12415 12.3356 4.25068 12.3356 3.1734C12.3356 2.09592 13.209 1.22265 14.2863 1.22265Z" fill="black"/>
<path fill-rule="evenodd" clip-rule="evenodd" d="M11.1719 18.0898H0.902389C0.32364 18.0898 0.0483281 18.3795 0 18.697V18.9058C0.0465455 19.2211 0.300862 19.5075 0.687488 19.5075H11.1719C11.1844 20.0667 11.6245 20.6389 11.9751 21.0247C12.4009 21.4931 13.2243 21.9998 14.0078 21.9998H14.5664C15.8788 21.9998 17.3106 20.611 17.4023 19.5075L21.2715 19.5095C21.7071 19.5006 21.955 19.2217 22 18.9141V18.7087C21.9594 18.4338 21.7552 18.1783 21.3763 18.1116C21.0216 18.0492 17.9157 18.0894 17.4023 18.0894C17.3565 17.5394 16.8186 16.7344 16.3654 16.3761C16.0632 16.1372 15.9128 16.0069 15.5183 15.8483C14.3319 15.3711 13.2009 15.5817 12.2205 16.3452C11.7808 16.6877 11.1836 17.5617 11.1717 18.0894L11.1719 18.0898ZM14.3156 16.8055C15.3931 16.8055 16.2664 17.679 16.2664 18.7563C16.2664 19.8338 15.3929 20.707 14.3156 20.707C13.2381 20.707 12.3649 19.8336 12.3649 18.7563C12.3649 17.6788 13.2383 16.8055 14.3156 16.8055Z" fill="black"/>
<path fill-rule="evenodd" clip-rule="evenodd" d="M4.59771 10.3125H0.601527C0.289969 10.3125 0 10.6106 0 11.086C0 11.3543 0.333147 11.6875 0.601527 11.6875H4.59771C4.60623 12.069 5.01979 12.8129 5.27371 13.074L5.46128 13.273C5.46742 13.2793 5.47613 13.2887 5.48247 13.2948C5.48861 13.3009 5.49792 13.3098 5.50426 13.316C5.5106 13.3221 5.5201 13.3306 5.52644 13.3366C5.572 13.3792 5.59537 13.3996 5.63914 13.4386C7.23239 14.8581 9.8219 14.2685 10.6813 12.2282C10.7601 12.041 10.7956 11.8442 10.8709 11.6873L21.0976 11.6877C21.4018 11.6897 21.5244 11.7065 21.7075 11.5669C21.8774 11.4373 21.9754 11.266 21.9998 11.0885V10.9121C21.9768 10.7441 21.8879 10.5809 21.7314 10.4518C21.5575 10.3082 21.4446 10.3089 21.1412 10.3115L10.8711 10.3121C10.6714 9.89618 10.6233 9.21364 9.7912 8.55586C9.20988 8.09635 8.56834 7.77687 7.73429 7.77687C6.51816 7.77687 5.60666 8.39622 5.00117 9.29762C4.85539 9.5147 4.60464 9.99046 4.59751 10.3119L4.59771 10.3125ZM7.71111 9.02588C8.78859 9.02588 9.66187 9.89935 9.66187 10.9766C9.66187 12.0541 8.78839 12.9274 7.71111 12.9274C6.63363 12.9274 5.76036 12.0539 5.76036 10.9766C5.76036 9.89915 6.63383 9.02588 7.71111 9.02588Z" fill="black"/>
</g>
<defs>
<clipPath id="clip0_3052_948">
<rect width="22" height="22" fill="white"/>
</clipPath>
</defs>
</svg>
